<?xml version="1.0" encoding="UTF-8"?>
<svg width="150px" height="150px" viewBox="0 0 150 150" version="1.1" xmlns="http://www.w3.org/2000/svg">
    <g fill="#0F3254">
        <path d="M75,15 C42.386,15 15,42.386 15,75 C15,107.614 42.386,135 75,135 C107.614,135 135,107.614 135,75 C135,42.386 107.614,15 75,15 Z M75,125 C47.938,125 25,102.062 25,75 C25,47.938 47.938,25 75,25 C102.062,25 125,47.938 125,75 C125,102.062 102.062,125 75,125 Z" />
        <path d="M85,40 L65,40 C62.239,40 60,42.239 60,45 L60,65 L40,65 C37.239,65 35,67.239 35,70 L35,80 C35,82.761 37.239,85 40,85 L60,85 L60,105 C60,107.761 62.239,110 65,110 L85,110 C87.761,110 90,107.761 90,105 L90,85 L110,85 C112.761,85 115,82.761 115,80 L115,70 C115,67.239 112.761,65 110,65 L90,65 L90,45 C90,42.239 87.761,40 85,40 Z" />
    </g>
</svg>