<?xml version="1.0" encoding="UTF-8"?>
<svg width="600" height="400" viewBox="0 0 600 400" xmlns="http://www.w3.org/2000/svg">
  <rect width="600" height="400" fill="#ffffff"/>
  
  <!-- Header -->
  <rect x="0" y="0" width="600" height="80" fill="#0F3254"/>
  <text x="40" y="45" font-family="Arial" font-size="20" fill="#ffffff" font-weight="bold">Lakeside Dental</text>
  <text x="40" y="65" font-family="Arial" font-size="14" fill="#ffffff">Patient Education Center</text>
  
  <rect x="350" y="25" width="70" height="30" rx="3" fill="transparent" stroke="#ffffff"/>
  <text x="365" y="45" font-family="Arial" font-size="14" fill="#ffffff">Services</text>
  
  <rect x="430" y="25" width="70" height="30" rx="3" fill="transparent" stroke="#ffffff"/>
  <text x="442" y="45" font-family="Arial" font-size="14" fill="#ffffff">Education</text>
  
  <rect x="510" y="25" width="70" height="30" rx="3" fill="#2CC4BF"/>
  <text x="520" y="45" font-family="Arial" font-size="14" fill="#ffffff">Contact</text>
  
  <!-- Main Content -->
  <rect x="0" y="80" width="600" height="320" fill="#f5f5f5"/>
  
  <!-- Left Menu -->
  <rect x="40" y="100" width="160" height="280" rx="5" fill="#ffffff" stroke="#eaeaea"/>
  <text x="60" y="130" font-family="Arial" font-size="16" fill="#0F3254" font-weight="bold">Procedures</text>
  
  <rect x="50" y="145" width="140" height="30" rx="3" fill="transparent"/>
  <text x="60" y="165" font-family="Arial" font-size="14" fill="#333333">Teeth Whitening</text>
  
  <rect x="50" y="175" width="140" height="30" rx="3" fill="#0F3254" fill-opacity="0.1"/>
  <text x="60" y="195" font-family="Arial" font-size="14" fill="#0F3254" font-weight="bold">Dental Implants</text>
  
  <rect x="50" y="205" width="140" height="30" rx="3" fill="transparent"/>
  <text x="60" y="225" font-family="Arial" font-size="14" fill="#333333">Veneers</text>
  
  <rect x="50" y="235" width="140" height="30" rx="3" fill="transparent"/>
  <text x="60" y="255" font-family="Arial" font-size="14" fill="#333333">Root Canal</text>
  
  <rect x="50" y="265" width="140" height="30" rx="3" fill="transparent"/>
  <text x="60" y="285" font-family="Arial" font-size="14" fill="#333333">Invisalign</text>
  
  <rect x="50" y="295" width="140" height="30" rx="3" fill="transparent"/>
  <text x="60" y="315" font-family="Arial" font-size="14" fill="#333333">Crowns</text>
  
  <rect x="50" y="325" width="140" height="30" rx="3" fill="transparent"/>
  <text x="60" y="345" font-family="Arial" font-size="14" fill="#333333">Cleaning</text>
  
  <!-- Content Area -->
  <rect x="220" y="100" width="340" height="280" rx="5" fill="#ffffff" stroke="#eaeaea"/>
  <text x="240" y="130" font-family="Arial" font-size="20" fill="#0F3254" font-weight="bold">Dental Implants</text>
  
  <text x="240" y="160" font-family="Arial" font-size="14" fill="#666666">Learn about the procedure, benefits, and recovery</text>
  
  <!-- 3D Model Representation -->
  <rect x="240" y="180" width="150" height="150" rx="5" fill="#0F3254" fill-opacity="0.1"/>
  <circle cx="315" cy="230" r="40" fill="#ffffff" stroke="#0F3254" stroke-width="2"/>
  <rect x="295" cy="230" width="40" height="70" x="295" y="200" fill="#ffffff" stroke="#0F3254" stroke-width="2"/>
  <line x1="315" y1="270" x2="315" y2="300" stroke="#0F3254" stroke-width="2"/>
  <text x="315" y="350" font-family="Arial" font-size="12" fill="#0F3254" text-anchor="middle">Interactive 3D Model</text>
  
  <!-- Text Content -->
  <text x="410" y="190" font-family="Arial" font-size="16" fill="#0F3254" font-weight="bold">What are Dental Implants?</text>
  <rect x="410" y="200" width="150" height="2" fill="#2CC4BF"/>
  
  <text x="410" y="225" font-family="Arial" font-size="14" fill="#333333" width="150">Dental implants are artificial tooth</text>
  <text x="410" y="245" font-family="Arial" font-size="14" fill="#333333" width="150">roots made of titanium that provide</text>
  <text x="410" y="265" font-family="Arial" font-size="14" fill="#333333" width="150">a permanent base for fixed</text>
  <text x="410" y="285" font-family="Arial" font-size="14" fill="#333333" width="150">replacement teeth.</text>
  
  <!-- Video Button -->
  <rect x="240" y="340" width="200" height="30" rx="3" fill="#0F3254"/>
  <text x="290" y="360" font-family="Arial" font-size="14" fill="#ffffff">Watch Video Tutorial</text>
  
  <!-- Download Button -->
  <rect x="450" y="340" width="110" height="30" rx="3" fill="#ffffff" stroke="#0F3254"/>
  <text x="470" y="360" font-family="Arial" font-size="14" fill="#0F3254">Download PDF</text>
</svg>