<?xml version="1.0" encoding="UTF-8"?>
<svg width="600" height="400" viewBox="0 0 600 400" xmlns="http://www.w3.org/2000/svg">
  <rect width="600" height="400" fill="#0F3254"/>
  
  <!-- Navigation -->
  <rect x="40" y="30" width="520" height="50" rx="5" fill="#ffffff"/>
  <circle cx="80" cy="55" r="15" fill="#2CC4BF"/>
  <rect x="120" y="45" width="60" height="20" rx="3" fill="#f0f0f0"/>
  <rect x="200" y="45" width="60" height="20" rx="3" fill="#f0f0f0"/>
  <rect x="280" y="45" width="60" height="20" rx="3" fill="#f0f0f0"/>
  
  <!-- Hero Section -->
  <rect x="40" y="100" width="520" height="120" rx="5" fill="#4A90E2" fill-opacity="0.2"/>
  <rect x="80" y="120" width="280" height="30" rx="3" fill="#0F3254"/>
  <rect x="80" y="160" width="200" height="20" rx="3" fill="#f0f0f0"/>
  <rect x="80" y="190" width="200" height="20" rx="3" fill="#f0f0f0"/>
  
  <!-- Content Area -->
  <rect x="40" y="240" width="250" height="140" rx="5" fill="#ffffff"/>
  <rect x="60" y="260" width="210" height="20" rx="3" fill="#0F3254"/>
  <rect x="60" y="290" width="180" height="10" rx="3" fill="#f0f0f0"/>
  <rect x="60" y="310" width="180" height="10" rx="3" fill="#f0f0f0"/>
  <rect x="60" y="330" width="180" height="10" rx="3" fill="#f0f0f0"/>
  <rect x="60" y="350" width="100" height="20" rx="10" fill="#2CC4BF"/>
  
  <!-- Content Area 2 -->
  <rect x="310" y="240" width="250" height="140" rx="5" fill="#ffffff"/>
  <rect x="330" y="260" width="210" height="20" rx="3" fill="#0F3254"/>
  <rect x="330" y="290" width="180" height="10" rx="3" fill="#f0f0f0"/>
  <rect x="330" y="310" width="180" height="10" rx="3" fill="#f0f0f0"/>
  <rect x="330" y="330" width="180" height="10" rx="3" fill="#f0f0f0"/>
  <rect x="330" y="350" width="100" height="20" rx="10" fill="#2CC4BF"/>
</svg>