<?xml version="1.0" encoding="UTF-8"?>
<svg width="600" height="400" viewBox="0 0 600 400" xmlns="http://www.w3.org/2000/svg">
  <rect width="600" height="400" fill="#0F3254"/>
  
  <!-- Top Header -->
  <rect x="0" y="0" width="600" height="80" fill="#0F3254"/>
  <rect x="40" y="20" width="160" height="40" rx="5" fill="#ffffff"/>
  <rect x="400" y="30" width="40" height="20" rx="3" fill="#ffffff"/>
  <rect x="460" y="30" width="40" height="20" rx="3" fill="#ffffff"/>
  <rect x="520" y="30" width="40" height="20" rx="3" fill="#ffffff"/>
  
  <!-- Hero Area -->
  <rect x="0" y="80" width="600" height="200" fill="#ffffff"/>
  
  <!-- Content -->
  <rect x="40" y="100" width="260" height="40" rx="3" fill="#0F3254"/>
  <rect x="40" y="150" width="220" height="20" rx="3" fill="#4A90E2"/>
  <rect x="40" y="180" width="220" height="20" rx="3" fill="#333333"/>
  <rect x="40" y="210" width="220" height="20" rx="3" fill="#333333"/>
  <rect x="40" y="240" width="120" height="30" rx="15" fill="#2CC4BF"/>
  
  <!-- Side Image -->
  <rect x="340" y="100" width="220" height="160" rx="5" fill="#4A90E2" fill-opacity="0.2"/>
  <circle cx="450" cy="140" r="20" fill="#2CC4BF"/>
  <path d="M450,130 L450,150 M440,140 L460,140" stroke="#0F3254" stroke-width="4" stroke-linecap="round"/>
  <rect x="400" y="180" width="100" height="10" rx="3" fill="#0F3254"/>
  <rect x="400" y="200" width="100" height="10" rx="3" fill="#0F3254"/>
  <rect x="400" y="220" width="100" height="10" rx="3" fill="#0F3254"/>
  
  <!-- Bottom Section -->
  <rect x="0" y="280" width="600" height="120" fill="#f8f8f8"/>
  <rect x="40" y="310" width="150" height="60" rx="5" fill="#ffffff"/>
  <rect x="60" y="330" width="110" height="20" rx="3" fill="#0F3254"/>
  
  <rect x="220" y="310" width="150" height="60" rx="5" fill="#ffffff"/>
  <rect x="240" y="330" width="110" height="20" rx="3" fill="#0F3254"/>
  
  <rect x="400" y="310" width="150" height="60" rx="5" fill="#ffffff"/>
  <rect x="420" y="330" width="110" height="20" rx="3" fill="#0F3254"/>
</svg>