<?xml version="1.0" encoding="UTF-8"?>
<svg width="600" height="400" viewBox="0 0 600 400" xmlns="http://www.w3.org/2000/svg">
  <rect width="600" height="400" fill="#0F3254"/>
  <rect x="40" y="40" width="520" height="60" rx="5" fill="#ffffff"/>
  <rect x="60" y="60" width="180" height="20" rx="3" fill="#4A90E2"/>
  <rect x="380" y="60" width="160" height="20" rx="3" fill="#f0f0f0"/>
  
  <rect x="40" y="120" width="520" height="240" rx="5" fill="#ffffff"/>
  <rect x="60" y="140" width="300" height="40" rx="3" fill="#0F3254"/>
  <rect x="60" y="200" width="240" height="20" rx="3" fill="#f0f0f0"/>
  <rect x="60" y="240" width="240" height="20" rx="3" fill="#f0f0f0"/>
  <rect x="60" y="280" width="240" height="20" rx="3" fill="#f0f0f0"/>
  
  <rect x="380" y="160" width="160" height="160" rx="5" fill="#2CC4BF" fill-opacity="0.2"/>
  <path d="M460,200 L460,280 M420,240 L500,240" stroke="#0F3254" stroke-width="10" stroke-linecap="round"/>
  
  <rect x="220" y="320" width="120" height="30" rx="15" fill="#4A90E2"/>
</svg>