<?xml version="1.0" encoding="UTF-8"?>
<svg width="150px" height="150px" viewBox="0 0 150 150" version="1.1" xmlns="http://www.w3.org/2000/svg">
    <g fill="#0F3254">
        <path d="M75,10 C39.1,10 10,39.1 10,75 C10,110.9 39.1,140 75,140 C110.9,140 140,110.9 140,75 C140,39.1 110.9,10 75,10 Z M75,130 C44.6,130 20,105.4 20,75 C20,44.6 44.6,20 75,20 C105.4,20 130,44.6 130,75 C130,105.4 105.4,130 75,130 Z"/>
        <path d="M105,70 L80,70 L80,45 C80,42.2 77.8,40 75,40 C72.2,40 70,42.2 70,45 L70,70 L45,70 C42.2,70 40,72.2 40,75 C40,77.8 42.2,80 45,80 L70,80 L70,105 C70,107.8 72.2,110 75,110 C77.8,110 80,107.8 80,105 L80,80 L105,80 C107.8,80 110,77.8 110,75 C110,72.2 107.8,70 105,70 Z"/>
    </g>
</svg>