<?xml version="1.0" encoding="UTF-8"?>
<svg width="150px" height="150px" viewBox="0 0 150 150" version="1.1" xmlns="http://www.w3.org/2000/svg">
    <g fill="#0F3254">
        <path d="M130,55 L115,55 L115,45 C115,39.477 110.523,35 105,35 L45,35 C39.477,35 35,39.477 35,45 L35,55 L20,55 C14.477,55 10,59.477 10,65 L10,115 C10,120.523 14.477,125 20,125 L130,125 C135.523,125 140,120.523 140,115 L140,65 C140,59.477 135.523,55 130,55 Z M45,45 L105,45 L105,55 L45,55 L45,45 Z M130,115 L20,115 L20,65 L130,65 L130,115 Z" />
        <path d="M82.5,85 L97.5,85 C100.261,85 102.5,82.761 102.5,80 C102.5,77.239 100.261,75 97.5,75 L82.5,75 L82.5,60 C82.5,57.239 80.261,55 77.5,55 C74.739,55 72.5,57.239 72.5,60 L72.5,75 L57.5,75 C54.739,75 52.5,77.239 52.5,80 C52.5,82.761 54.739,85 57.5,85 L72.5,85 L72.5,100 C72.5,102.761 74.739,105 77.5,105 C80.261,105 82.5,102.761 82.5,100 L82.5,85 Z" />
    </g>
</svg>